<?xml version="1.0" standalone="no"?>
<!DOCTYPE svg PUBLIC "-//W3C//DTD SVG 20010904//EN"
 "http://www.w3.org/TR/2001/REC-SVG-20010904/DTD/svg10.dtd">
<svg version="1.0" xmlns="http://www.w3.org/2000/svg"
 width="1088.000000pt" height="1088.000000pt" viewBox="0 0 1088.000000 1088.000000"
 preserveAspectRatio="xMidYMid meet">
<metadata>
Created by potrace 1.14, written by Peter Selinger 2001-2017
</metadata>
<g transform="translate(0.000000,1088.000000) scale(0.100000,-0.100000)"
fill="#000000" stroke="none">
<path d="M5597 10824 c-1 -1 -54 -5 -117 -8 -63 -4 -124 -8 -135 -10 -11 -3
-41 -8 -68 -12 -26 -3 -49 -10 -52 -14 -2 -4 -16 -6 -30 -5 -14 2 -25 0 -25
-3 0 -4 -14 -8 -32 -9 -18 0 -34 -5 -36 -11 -1 -5 -11 -8 -21 -5 -9 2 -24 -4
-31 -14 -8 -10 -10 -15 -6 -11 11 9 36 -9 36 -25 0 -6 -6 -3 -13 8 -10 12 -16
14 -21 7 -4 -7 -4 -16 -1 -22 3 -5 4 -10 1 -10 -3 0 -10 10 -17 21 -9 17 -8
20 3 14 10 -6 10 -5 1 5 -9 10 -15 10 -26 2 -8 -7 -17 -9 -20 -6 -3 3 -12 2
-19 -2 -7 -5 -17 -9 -23 -10 -25 -3 -55 -17 -55 -25 0 -5 -3 -8 -7 -8 -20 3
-33 -2 -33 -12 0 -8 6 -7 17 2 15 13 15 12 2 -9 -8 -12 -16 -17 -17 -12 -3 8
-8 7 -17 0 -10 -8 -15 -8 -21 1 -4 8 -3 9 4 5 7 -4 12 -2 12 3 0 15 -12 14
-35 -2 -14 -11 -15 -16 -5 -22 9 -6 11 -4 5 5 -5 9 -4 11 3 6 18 -11 14 -29
-5 -22 -22 9 -122 -23 -119 -38 2 -6 1 -8 -1 -3 -3 4 -12 7 -20 7 -10 0 -14
-6 -10 -19 3 -14 1 -18 -9 -14 -8 3 -11 10 -8 15 4 6 1 8 -7 6 -8 -3 -13 -14
-12 -24 1 -10 0 -13 -3 -6 -3 6 -15 12 -25 12 -11 0 -17 -4 -14 -10 4 -6 -6
-10 -22 -10 -39 0 -73 -10 -73 -22 0 -5 4 -7 8 -4 4 2 14 1 21 -4 9 -5 -4 -7
-32 -6 -35 1 -55 -4 -84 -24 -21 -14 -38 -31 -38 -36 0 -6 -8 -18 -17 -28 -25
-24 -22 -4 3 28 25 31 14 35 -12 4 -11 -11 -19 -18 -19 -13 0 4 -7 2 -16 -6
-13 -11 -13 -15 -2 -23 17 -14 19 -43 3 -43 -7 0 -12 8 -10 18 2 10 -3 20 -12
23 -13 5 -13 9 -2 23 10 12 4 10 -17 -5 -17 -12 -35 -18 -39 -14 -4 4 0 -8 9
-26 9 -18 21 -30 25 -27 5 3 12 -2 15 -10 4 -13 2 -13 -14 -5 -26 14 -30 13
-23 -7 6 -17 6 -17 -9 -2 -10 10 -15 26 -12 40 5 24 4 24 -5 2 -7 -15 -16 -21
-26 -17 -8 3 -15 8 -15 11 0 3 6 3 13 0 8 -3 14 1 14 8 0 10 -6 11 -23 3 -19
-9 -21 -13 -9 -24 7 -8 18 -14 24 -14 5 0 13 -5 16 -11 4 -6 1 -9 -8 -7 -8 2
-23 -6 -33 -17 -11 -11 -16 -16 -11 -11 12 16 8 26 -8 20 -8 -4 -15 -1 -15 4
0 6 9 9 20 7 26 -5 26 7 0 23 -11 7 -20 9 -19 5 3 -20 -2 -27 -11 -13 -8 13
-11 13 -22 1 -7 -8 -8 -11 -2 -8 7 4 14 0 18 -8 6 -16 -26 -39 -39 -27 -4 4
-4 -4 -1 -18 5 -17 4 -21 -2 -11 -6 8 -17 11 -25 8 -8 -3 -20 0 -26 6 -8 8
-16 6 -29 -6 -10 -9 -22 -14 -27 -10 -4 5 -5 2 -1 -4 4 -7 2 -13 -4 -13 -7 0
-9 -9 -6 -22 3 -13 3 -17 0 -10 -3 6 -11 9 -16 6 -6 -4 -8 -2 -4 4 3 6 2 14
-4 17 -6 4 -9 1 -8 -7 2 -7 -3 -12 -10 -10 -8 1 -11 -2 -6 -9 5 -9 2 -10 -10
-6 -9 4 -15 3 -12 -2 7 -10 -22 -25 -42 -22 -7 1 -11 -4 -10 -10 2 -7 -5 -15
-15 -17 -11 -2 -28 -13 -38 -23 -11 -11 -24 -17 -29 -14 -5 3 -12 -4 -15 -16
-4 -11 -9 -18 -12 -15 -9 9 -44 -14 -38 -25 4 -5 -1 -9 -10 -9 -9 0 -38 -17
-63 -37 -55 -44 -72 -59 -54 -49 6 4 12 5 12 2 0 -3 -15 -12 -32 -20 -18 -8
-46 -27 -63 -41 -29 -26 -29 -26 -5 -20 19 5 22 4 10 -4 -8 -6 -22 -11 -31
-11 -9 0 -28 -13 -42 -30 -15 -16 -24 -30 -20 -30 4 0 -1 -6 -11 -13 -11 -8
-17 -20 -14 -27 3 -10 8 -9 20 3 15 16 28 13 28 -6 0 -6 -3 -7 -6 -4 -11 10
-45 -13 -38 -25 5 -7 2 -8 -7 -2 -22 14 -36 13 -36 -2 0 -10 4 -11 14 -3 8 7
13 8 13 1 0 -12 -29 -24 -41 -16 -5 3 -9 -2 -9 -11 0 -9 -4 -13 -10 -10 -5 3
-10 2 -10 -4 0 -6 -8 -8 -17 -4 -14 5 -15 3 -7 -7 9 -9 7 -17 -7 -31 -10 -10
-21 -19 -23 -19 -6 0 -44 -37 -70 -68 -29 -34 -10 -26 25 10 24 25 32 29 39
18 9 -14 -19 -62 -32 -54 -10 6 0 -58 11 -69 7 -7 3 -21 -12 -41 -12 -17 -22
-34 -22 -37 0 -15 -41 -79 -54 -84 -12 -5 -11 -2 2 13 9 10 14 22 10 25 -3 4
-1 7 6 7 7 0 10 4 7 9 -4 5 0 12 6 14 7 3 4 6 -7 7 -17 1 -18 2 -3 8 10 4 14
12 10 18 -5 8 -14 3 -26 -14 -11 -14 -13 -22 -6 -17 10 6 12 4 6 -11 -5 -10
-9 -25 -9 -31 0 -14 -13 -17 -20 -5 -2 4 -2 0 1 -8 2 -8 5 -21 5 -27 0 -7 3
-13 7 -13 3 0 12 6 20 13 12 10 12 9 1 -5 -7 -10 -20 -18 -28 -18 -13 0 -13
-3 -3 -15 11 -13 10 -14 -6 -8 -17 6 -18 5 -4 -12 9 -11 10 -16 3 -11 -8 4
-13 1 -13 -8 0 -9 -4 -16 -10 -16 -5 0 -7 -7 -4 -15 4 -10 0 -15 -11 -15 -9 0
-13 -5 -10 -10 4 -6 11 -7 17 -4 6 4 8 2 5 -4 -4 -5 -16 -8 -27 -5 -11 3 -17
10 -13 16 4 6 1 7 -7 2 -10 -6 -10 -11 4 -20 17 -13 12 -50 -6 -39 -6 4 -5 10
3 16 11 8 11 9 -1 5 -8 -2 -14 -12 -12 -22 2 -12 -1 -15 -10 -9 -11 6 -11 5 0
-8 10 -13 9 -18 -5 -29 -16 -13 -17 -12 -4 4 9 11 10 17 2 17 -10 0 -15 -13
-12 -32 0 -5 -7 -17 -16 -27 -34 -37 -39 -47 -35 -60 3 -9 0 -11 -9 -6 -11 6
-12 5 -2 -5 10 -11 9 -17 -4 -32 -15 -17 -15 -20 -3 -28 8 -6 11 -10 5 -10
-28 0 -35 17 -15 38 12 12 17 22 12 22 -6 0 -17 -10 -25 -23 -11 -18 -12 -28
-4 -43 10 -18 9 -18 -8 -4 -17 14 -18 14 -5 -10 13 -24 12 -24 -5 -10 -17 14
-18 13 -13 -2 4 -10 1 -19 -9 -22 -12 -5 -13 -9 -4 -20 9 -11 9 -16 0 -22 -8
-5 -10 -3 -4 7 7 12 5 12 -6 1 -12 -11 -12 -14 1 -22 12 -8 12 -10 1 -10 -9 0
-11 -7 -8 -21 5 -17 3 -18 -10 -7 -15 12 -15 11 -4 -11 11 -19 11 -22 0 -16
-9 6 -10 3 -6 -9 6 -14 3 -17 -10 -12 -14 6 -15 4 -6 -5 9 -9 8 -15 -3 -26
-12 -12 -12 -18 -2 -31 10 -12 10 -14 1 -8 -9 5 -13 0 -13 -13 0 -12 -4 -21
-10 -21 -5 0 -10 -5 -10 -11 0 -5 4 -8 8 -5 4 2 9 -4 9 -15 1 -12 -7 -24 -20
-29 -12 -5 -16 -9 -9 -9 17 -1 15 -16 -4 -35 -11 -11 -12 -16 -3 -16 10 0 10
-3 2 -11 -6 -6 -9 -18 -6 -25 3 -8 1 -14 -4 -14 -5 0 -10 -6 -10 -12 0 -7 -6
-44 -13 -83 -7 -38 -14 -80 -14 -92 -1 -13 -4 -23 -8 -23 -5 0 -7 -3 -6 -7 1
-5 -4 -27 -11 -51 -6 -23 -9 -48 -5 -54 4 -6 3 -8 -3 -5 -6 4 -14 -1 -18 -10
-3 -10 -1 -19 4 -21 6 -2 11 -8 11 -13 0 -6 -5 -7 -10 -4 -12 8 -18 -7 -23
-58 -3 -21 -7 -40 -10 -44 -4 -3 -2 -13 3 -23 6 -12 3 -21 -11 -33 -16 -14
-17 -20 -7 -37 11 -17 10 -22 0 -29 -11 -7 -10 -10 3 -15 14 -5 15 -9 5 -21
-7 -8 -9 -15 -5 -15 5 0 0 -9 -10 -20 -10 -11 -15 -20 -11 -20 4 0 2 -10 -5
-21 -8 -16 -8 -20 1 -14 12 7 11 -25 -1 -35 -3 -3 -9 -20 -12 -39 -6 -31 -6
-32 11 -20 15 12 16 12 5 -2 -10 -12 -9 -20 3 -37 11 -15 12 -22 3 -20 -15 4
-20 -91 -6 -109 6 -9 6 -13 -1 -13 -6 0 -9 -6 -6 -14 3 -8 2 -16 -3 -19 -5 -3
-8 19 -8 48 1 30 -2 52 -5 49 -3 -3 -6 -27 -6 -52 -1 -26 -3 -61 -5 -79 -2
-21 3 -39 16 -55 11 -12 13 -17 5 -10 -19 16 -30 15 -30 -4 0 -8 4 -13 9 -10
5 4 7 -3 4 -14 -3 -11 -9 -20 -15 -20 -5 0 -5 -7 1 -18 5 -9 8 -36 7 -60 -1
-23 2 -42 7 -42 5 0 6 -7 3 -16 -3 -8 -2 -12 4 -9 5 3 8 -12 7 -34 -2 -22 -1
-38 2 -36 2 3 10 0 18 -6 10 -9 11 -15 2 -26 -9 -11 -9 -17 0 -26 10 -9 11 -8
5 8 -7 17 -6 18 8 7 11 -9 18 -10 23 -2 3 5 11 10 17 10 5 0 0 -9 -13 -19 -19
-16 -22 -22 -11 -32 14 -15 16 -33 3 -25 -5 3 -12 -1 -15 -10 -3 -8 -10 -13
-15 -10 -17 11 -87 -72 -97 -115 -6 -28 -6 -108 1 -118 2 -4 7 -30 11 -57 3
-27 11 -55 16 -61 6 -7 8 -13 5 -13 -3 0 -1 -15 4 -32 6 -18 12 -41 14 -50 2
-10 8 -25 13 -34 5 -9 5 -38 0 -67 -21 -132 -28 -285 -13 -292 7 -3 7 -7 -1
-10 -6 -3 -9 -30 -6 -68 12 -205 -1 -593 -21 -613 -3 -3 -1 -19 3 -35 5 -16 5
-31 1 -33 -4 -3 -7 -28 -7 -56 1 -27 -1 -50 -4 -50 -5 0 -5 -100 1 -255 2 -44
8 -83 14 -87 6 -5 5 -8 -3 -8 -7 0 -11 -4 -7 -9 3 -6 8 -29 11 -53 2 -24 7
-54 10 -66 3 -13 7 -43 11 -65 3 -23 12 -54 19 -69 11 -22 12 -28 2 -28 -9 0
-8 -3 2 -10 8 -5 11 -10 6 -10 -5 0 -3 -7 4 -15 6 -8 9 -19 5 -25 -3 -5 -1
-10 6 -10 7 0 10 -3 7 -6 -4 -3 0 -17 7 -31 8 -15 12 -30 9 -35 -3 -4 0 -8 6
-8 6 0 8 -4 5 -10 -3 -5 -1 -10 5 -10 6 0 8 -5 5 -10 -3 -6 1 -17 10 -26 9 -9
14 -23 11 -30 -3 -8 -1 -14 4 -14 6 0 10 -7 10 -15 0 -8 5 -15 11 -15 5 0 8
-4 4 -9 -3 -5 2 -16 10 -24 8 -9 15 -23 15 -31 0 -9 4 -16 9 -16 5 0 21 -20
35 -45 15 -25 32 -45 37 -45 6 0 9 -7 5 -15 -3 -8 0 -14 7 -12 7 1 11 -4 9
-10 -1 -7 5 -13 14 -13 8 0 13 -4 10 -9 -3 -5 1 -12 10 -15 8 -3 12 -11 8 -17
-4 -8 -3 -9 4 -5 7 4 12 2 12 -4 0 -6 5 -8 10 -5 5 3 10 -2 10 -11 0 -10 3
-15 6 -11 4 3 23 -11 44 -33 21 -22 40 -36 44 -33 3 4 6 0 6 -7 0 -7 3 -11 6
-7 8 8 33 -16 27 -25 -4 -7 20 -12 40 -9 4 0 7 -6 7 -16 0 -9 3 -14 6 -10 12
11 34 -21 34 -49 0 -22 -3 -25 -12 -16 -7 7 -16 8 -23 2 -8 -6 -19 -3 -33 10
-12 11 -33 21 -47 22 -14 1 -25 8 -25 15 0 7 -7 10 -17 6 -10 -4 -14 -2 -10 4
5 7 0 9 -13 6 -11 -3 -17 -10 -13 -17 4 -6 -1 -5 -10 3 -13 10 -17 10 -17 1 0
-7 -7 -10 -15 -6 -8 3 -15 0 -15 -6 0 -6 -3 -8 -7 -5 -3 4 -17 0 -31 -9 -13
-9 -21 -11 -18 -5 4 6 3 11 -3 11 -5 0 -11 -5 -13 -10 -2 -6 -16 -12 -32 -14
-15 -2 -32 -9 -37 -17 -5 -8 -9 -10 -9 -5 0 5 -6 3 -13 -3 -8 -6 -17 -8 -20
-4 -4 3 -7 1 -7 -6 0 -7 -5 -9 -10 -6 -6 3 -13 0 -16 -9 -3 -8 -14 -13 -25
-11 -10 2 -18 -1 -16 -8 1 -7 -4 -11 -11 -9 -7 1 -15 -5 -18 -13 -3 -8 -10
-12 -15 -9 -5 3 -12 -2 -15 -10 -3 -9 -10 -13 -15 -10 -5 3 -9 -3 -10 -13 0
-12 -2 -13 -6 -5 -4 10 -9 8 -20 -7 -8 -12 -19 -19 -24 -16 -5 4 -9 -1 -9 -9
0 -9 -3 -15 -8 -14 -12 4 -62 -45 -55 -55 3 -6 1 -7 -5 -3 -7 4 -12 2 -12 -5
0 -7 -3 -10 -6 -6 -3 3 -16 -5 -29 -19 -12 -13 -27 -24 -32 -24 -6 0 -13 -10
-16 -21 -4 -15 -11 -20 -22 -15 -9 3 -14 2 -11 -3 3 -5 -6 -16 -19 -25 -14
-10 -23 -22 -19 -28 4 -6 3 -8 -3 -5 -5 3 -24 -7 -42 -23 -18 -17 -37 -30 -43
-30 -5 0 -7 -7 -4 -16 3 -8 2 -12 -3 -9 -6 3 -14 -3 -20 -12 -6 -10 -11 -15
-11 -10 0 11 -40 -32 -40 -44 0 -5 -5 -7 -10 -4 -5 3 -10 1 -10 -5 0 -6 -5 -8
-10 -5 -6 4 -10 3 -9 -2 3 -20 -2 -34 -11 -28 -5 3 -10 1 -10 -5 0 -6 -4 -9
-9 -5 -6 3 -8 -4 -6 -16 4 -17 2 -19 -10 -9 -12 10 -15 9 -15 -2 0 -9 -21 -36
-46 -62 -26 -25 -43 -46 -38 -46 5 -1 -2 -7 -16 -15 -14 -8 -22 -14 -17 -15 6
0 -23 -37 -61 -76 -6 -7 -12 -17 -12 -23 0 -6 -7 -11 -17 -11 -9 0 -14 -3 -10
-6 3 -4 1 -12 -6 -19 -7 -6 -21 -24 -32 -39 -11 -16 -35 -43 -52 -62 -18 -19
-29 -34 -25 -34 4 0 -2 -7 -12 -15 -11 -8 -16 -15 -12 -15 4 0 1 -6 -6 -13
-27 -28 -63 -80 -60 -89 1 -4 -2 -8 -6 -8 -5 0 -19 -20 -32 -45 -13 -25 -27
-45 -32 -45 -5 0 -7 -4 -4 -8 3 -5 -3 -18 -14 -29 -10 -12 -16 -24 -13 -27 4
-3 -2 -13 -13 -22 -10 -8 -13 -13 -7 -9 8 4 6 -6 -4 -24 -10 -16 -21 -27 -25
-25 -4 3 -5 -1 -2 -9 3 -8 0 -18 -5 -22 -6 -3 -9 -11 -6 -16 4 -5 2 -9 -3 -9
-9 0 -23 -35 -27 -65 0 -5 -6 -9 -12 -8 -6 1 -10 -5 -8 -15 1 -9 -5 -25 -14
-36 -9 -10 -15 -20 -13 -22 6 -9 -11 -54 -20 -54 -6 0 -8 -7 -4 -15 3 -8 1
-15 -5 -15 -6 0 -7 -4 -4 -10 3 -5 2 -10 -2 -10 -5 0 -9 -10 -10 -22 -1 -11
-7 -24 -13 -28 -6 -4 -12 -13 -13 -21 -2 -8 -7 -20 -11 -28 -7 -10 -5 -12 5
-7 8 4 6 1 -4 -7 -10 -8 -19 -24 -22 -35 -2 -11 -8 -29 -14 -40 -6 -11 -7 -22
-4 -26 3 -3 1 -6 -6 -6 -7 0 -10 -4 -6 -9 3 -5 1 -12 -5 -16 -6 -4 -8 -11 -5
-16 4 -5 1 -9 -5 -9 -6 0 -9 -4 -5 -9 3 -5 1 -12 -4 -15 -4 -3 -12 -20 -16
-38 -4 -18 -9 -36 -10 -40 -1 -5 -3 -13 -4 -19 0 -5 -5 -8 -9 -5 -4 2 -9 -7
-10 -21 -1 -14 -7 -32 -13 -39 -6 -8 -8 -14 -4 -14 4 0 2 -7 -5 -15 -7 -8 -9
-15 -6 -15 4 0 1 -10 -6 -22 -7 -13 -13 -31 -14 -40 -1 -10 -3 -21 -4 -25 -1
-5 -2 -11 -1 -16 0 -4 -3 -7 -8 -7 -5 0 -11 -15 -15 -33 -3 -17 -7 -36 -9 -42
-2 -5 -6 -17 -9 -25 -3 -8 -10 -33 -16 -55 -6 -22 -18 -67 -27 -100 -9 -33
-18 -67 -19 -75 -2 -8 -10 -35 -17 -60 -20 -71 -20 -74 -20 -93 0 -9 -4 -17
-8 -17 -7 0 -9 -7 -13 -50 -1 -11 -7 -20 -12 -20 -5 0 -7 -3 -3 -6 3 -4 0 -22
-9 -42 -8 -19 -12 -37 -9 -40 3 -3 0 -10 -5 -17 -5 -6 -11 -20 -14 -31 -12
-59 -19 -84 -25 -84 -4 0 -8 -8 -9 -17 -2 -24 -8 -45 -15 -63 -4 -8 -8 -24
-10 -35 -1 -11 -6 -26 -10 -32 -5 -7 -5 -17 -2 -23 3 -5 2 -10 -2 -10 -8 0
-14 -30 -16 -82 -1 -10 -6 -18 -12 -18 -6 0 -7 -3 0 -8 6 -4 10 -25 11 -47 1
-51 8 -81 27 -128 9 -20 13 -37 9 -37 -4 0 -2 -4 5 -8 6 -4 13 -16 15 -27 1
-11 7 -23 13 -27 5 -4 10 -11 10 -15 1 -4 6 -18 13 -30 7 -13 10 -23 6 -23 -3
0 -1 -7 6 -15 11 -13 566 -15 4886 -15 l4874 0 0 60 c0 46 -4 62 -16 67 -13 5
-13 7 -2 14 10 7 9 9 -4 9 -9 0 -19 9 -23 19 -3 11 -13 22 -21 25 -9 3 -12 11
-8 17 4 7 3 9 -3 6 -5 -3 -17 7 -27 24 -9 16 -21 27 -26 24 -8 -5 -24 32 -20
50 1 5 -1 7 -5 3 -13 -13 -34 16 -22 30 8 10 7 12 -2 10 -7 -2 -16 4 -20 12
-5 8 -13 25 -19 36 -8 16 -7 25 1 33 8 8 7 11 -6 11 -10 0 -14 5 -11 15 4 9 0
15 -7 15 -12 0 -12 2 -1 9 11 6 10 10 -3 15 -10 3 -15 12 -11 21 3 8 -3 19
-12 24 -14 9 -14 11 -2 11 8 1 4 6 -10 11 -20 8 -22 12 -10 19 12 8 12 10 1
10 -8 0 -11 6 -7 16 3 8 2 12 -4 9 -6 -3 -10 1 -10 9 0 9 -6 16 -12 16 -9 0
-8 4 2 10 13 8 13 10 -2 10 -12 0 -16 6 -13 21 3 16 0 19 -13 14 -13 -5 -14
-4 -5 6 10 10 9 15 -5 25 -11 9 -13 13 -4 14 7 0 10 5 7 10 -4 6 -10 8 -13 6
-4 -2 -12 7 -19 20 -8 18 -8 23 0 18 7 -3 4 1 -6 9 -14 11 -15 16 -5 20 10 4
10 6 1 6 -7 1 -13 8 -13 17 0 9 -5 12 -12 8 -8 -5 -7 0 2 11 8 10 11 16 5 13
-12 -7 -37 17 -28 26 4 3 -2 15 -11 25 -10 11 -15 25 -11 30 3 6 -2 11 -12 11
-15 0 -16 2 -3 10 12 8 12 10 -2 15 -10 4 -15 15 -13 26 2 11 0 17 -4 14 -5
-3 -12 2 -15 11 -3 9 -2 12 5 8 6 -3 5 3 -3 15 -7 12 -16 21 -21 21 -4 0 -5 5
-2 10 3 6 2 10 -2 10 -5 0 -9 10 -10 22 -1 11 -6 24 -12 27 -5 3 -11 13 -13
21 -2 8 -8 20 -15 27 -6 7 -9 22 -6 33 4 14 0 20 -10 20 -10 0 -14 8 -13 25 2
13 -1 22 -5 19 -5 -3 -9 0 -9 6 0 6 -4 9 -8 6 -4 -2 -8 4 -9 14 -1 11 -11 30
-23 42 -11 12 -18 28 -16 35 3 7 -2 13 -10 13 -8 0 -13 4 -9 9 3 6 -5 20 -17
32 -13 12 -16 19 -8 15 8 -4 5 1 -7 10 -13 9 -23 22 -23 28 0 6 5 4 10 -4 5
-8 10 -10 10 -4 0 16 -25 35 -35 26 -5 -4 -5 1 -2 11 4 9 2 17 -4 17 -6 0 -7
5 -4 10 3 6 -1 10 -9 10 -8 0 -18 9 -21 20 -3 11 -11 20 -16 20 -6 0 -8 4 -4
9 3 5 -1 16 -9 24 -8 8 -12 17 -9 21 4 3 -5 6 -18 7 -13 0 -19 3 -12 5 13 6 6
34 -9 34 -5 0 -6 -5 -2 -12 4 -7 3 -8 -5 -4 -9 6 -9 12 1 24 7 10 8 14 3 9 -4
-4 -19 3 -32 15 -19 17 -21 24 -10 37 6 8 8 13 2 10 -5 -2 -27 13 -48 33 -21
21 -31 35 -23 32 9 -3 16 -1 16 5 0 6 -3 10 -7 10 -21 -3 -31 3 -41 27 -7 14
-17 22 -22 19 -14 -9 -13 8 2 23 9 9 6 10 -12 7 -12 -2 -20 -2 -16 2 3 3 1 12
-5 19 -6 8 -8 21 -5 30 5 14 4 15 -8 5 -13 -11 -16 -8 -22 13 -3 14 -11 26
-16 26 -6 0 -8 6 -5 13 5 15 -18 39 -29 29 -4 -4 -4 1 -1 11 4 9 2 17 -4 17
-6 0 -9 6 -6 14 7 19 -3 28 -18 16 -9 -8 -12 -4 -10 15 2 14 -1 25 -6 25 -4 0
-5 8 -2 18 6 14 4 15 -9 4 -14 -11 -15 -9 -13 17 1 18 -2 28 -9 25 -6 -2 -12
9 -13 28 -1 17 -8 35 -15 40 -10 6 -10 8 2 8 9 0 11 3 5 8 -6 4 -17 26 -25 49
-7 24 -18 43 -24 44 -6 0 -2 4 9 8 20 8 20 8 -1 15 -16 5 -20 12 -17 26 3 12
0 20 -8 20 -7 0 -9 3 -6 7 4 3 2 12 -4 20 -9 10 -8 13 5 13 9 0 16 4 16 10 0
5 -6 7 -14 4 -8 -3 -17 0 -22 7 -5 8 -3 10 7 5 8 -4 5 0 -5 8 -20 16 -20 16 0
16 15 0 16 2 4 9 -8 6 -17 8 -20 6 -3 -2 -5 7 -6 18 -1 30 -7 51 -18 58 -5 4
-8 19 -8 33 0 17 -5 25 -13 22 -8 -3 -11 4 -9 20 1 15 -2 22 -9 17 -7 -4 -8 0
-4 11 5 11 3 15 -5 10 -8 -5 -9 -1 -4 12 4 10 4 15 0 11 -9 -9 -33 23 -34 46
0 9 -7 17 -16 17 -8 0 -12 5 -9 10 3 6 1 10 -4 10 -6 0 -11 7 -11 15 0 8 -5
15 -11 15 -5 0 -8 4 -5 8 3 5 -4 16 -15 25 -11 10 -17 22 -14 27 3 6 -1 10
-10 10 -10 0 -13 -5 -9 -12 4 -7 3 -8 -5 -4 -9 6 -9 11 1 24 11 13 11 15 -4
10 -17 -7 -19 7 -4 30 7 11 4 12 -12 3 -17 -9 -22 -8 -27 9 -3 11 -11 20 -16
20 -6 0 -7 5 -3 12 5 8 2 9 -9 5 -13 -5 -17 -1 -17 14 0 12 -8 23 -20 26 -11
3 -20 12 -20 20 0 9 -6 13 -14 10 -10 -4 -13 -1 -9 10 3 8 1 18 -5 22 -6 3
-12 13 -14 21 -2 8 -9 21 -16 28 -7 8 -9 19 -5 25 4 7 -1 6 -10 -2 -15 -12
-17 -12 -11 3 4 11 0 22 -12 31 -12 9 -14 14 -6 15 7 0 10 5 7 10 -4 6 -11 7
-17 4 -7 -5 -8 -2 -3 6 5 8 1 18 -10 26 -10 7 -15 20 -12 28 4 9 1 18 -5 22
-7 5 -8 2 -3 -6 5 -9 4 -11 -3 -6 -7 4 -12 16 -12 27 0 13 -4 18 -12 13 -8 -5
-9 -2 -5 10 4 10 1 19 -8 22 -8 4 -15 15 -15 25 0 10 -5 19 -11 19 -5 0 -8 4
-4 9 3 6 -3 14 -12 20 -14 8 -15 10 -3 11 13 0 13 2 0 9 -8 6 -18 7 -23 4 -5
-3 -4 4 2 16 9 16 9 21 0 19 -6 -2 -20 12 -30 30 -11 18 -28 43 -39 54 -11 12
-20 27 -20 34 0 6 -7 15 -16 18 -9 4 -14 13 -10 21 4 11 0 15 -12 13 -9 -2
-16 3 -14 10 1 6 -4 12 -12 12 -8 0 -18 9 -21 20 -3 11 -12 20 -20 20 -7 0
-15 9 -18 20 -3 11 -12 20 -21 20 -9 0 -16 7 -16 16 0 8 -4 12 -10 9 -5 -3
-10 1 -10 10 0 11 -5 15 -16 11 -8 -3 -12 -2 -9 4 3 6 1 10 -5 10 -6 0 -8 5
-5 10 3 6 1 10 -5 10 -7 0 -19 8 -28 18 -10 10 -12 11 -7 2 9 -13 8 -13 -8 -1
-10 8 -16 20 -13 28 3 8 2 12 -3 8 -15 -8 -41 6 -41 23 0 8 -3 13 -6 9 -4 -3
-13 1 -21 9 -9 8 -21 13 -28 10 -9 -3 -11 3 -8 17 4 18 3 19 -6 7 -9 -13 -11
-12 -11 3 0 10 -4 15 -10 12 -5 -3 -10 -1 -10 4 0 6 -7 11 -16 11 -16 0 -48
27 -50 42 -1 4 -2 10 -3 13 0 3 -11 0 -23 -6 -13 -6 -20 -8 -16 -4 9 10 -31
47 -43 39 -5 -3 -9 0 -9 5 0 6 -9 11 -21 11 -11 0 -18 4 -15 9 3 5 -1 12 -10
15 -8 3 -12 2 -9 -3 3 -5 1 -13 -5 -16 -6 -4 -10 -3 -9 2 4 21 -3 29 -23 30
-11 1 -25 7 -29 14 -4 7 -15 9 -24 5 -14 -5 -15 -4 -7 7 8 10 6 13 -9 14 -10
1 -32 11 -47 22 -21 14 -32 17 -46 9 -9 -5 -20 -7 -23 -4 -4 3 -1 6 6 6 7 0
10 4 6 10 -3 5 -12 7 -20 3 -9 -3 -15 1 -15 10 0 11 -6 13 -22 9 -16 -4 -19
-2 -13 9 8 12 6 12 -8 0 -12 -9 -17 -10 -17 -2 0 7 -5 9 -12 5 -8 -5 -9 -2 -5
10 5 14 3 15 -13 6 -16 -9 -18 -8 -13 6 4 12 3 15 -6 10 -6 -4 -19 -2 -28 6
-12 9 -15 9 -9 1 4 -7 2 -13 -3 -13 -6 0 -11 7 -11 16 0 14 -3 14 -15 4 -9 -7
-18 -10 -22 -6 -3 3 -1 6 5 6 21 0 13 16 -8 17 -13 1 -18 -2 -14 -9 4 -7 2 -8
-5 -4 -8 5 -9 12 -2 20 7 8 5 12 -9 12 -10 0 -16 -4 -14 -8 3 -4 1 -8 -3 -8
-5 0 -14 9 -20 19 -12 20 -28 22 -50 8 -9 -6 -11 -3 -7 7 4 11 0 13 -14 9 -15
-3 -20 0 -18 11 1 8 6 19 11 23 4 4 5 2 1 -4 -4 -7 -3 -13 2 -13 5 0 14 10 21
22 l11 23 -6 -24 c-6 -21 -4 -22 9 -10 8 8 14 16 14 19 -4 14 43 51 55 44 7
-4 10 -4 6 1 -4 4 -3 14 4 22 6 7 8 16 5 20 -4 3 1 12 11 20 9 8 11 12 5 8 -7
-3 -13 -1 -13 4 0 6 5 11 10 11 6 0 10 11 10 24 0 33 10 57 21 50 5 -3 6 2 3
10 -3 9 -1 16 5 16 6 0 11 5 11 11 0 5 -6 7 -12 4 -7 -4 -3 2 8 12 12 10 21
28 19 40 -1 13 2 23 7 23 4 0 8 8 8 18 0 13 2 14 9 4 6 -10 10 -9 14 7 3 14 1
19 -6 16 -7 -3 -2 2 11 11 12 9 22 25 22 36 0 10 5 16 10 13 6 -3 10 1 10 9 0
8 6 19 13 23 6 4 12 15 12 23 0 8 6 14 13 12 8 -1 11 2 7 8 -3 5 0 10 7 10 9
0 9 3 -2 10 -13 8 -12 10 4 10 11 0 16 3 13 6 -4 4 3 15 14 25 11 9 20 21 20
26 -1 19 11 43 20 38 5 -4 9 1 9 9 0 9 4 16 10 16 5 0 9 3 9 8 -3 19 2 33 11
27 6 -4 7 1 3 11 -5 13 -2 16 9 11 12 -4 14 -1 11 14 -3 10 0 19 6 19 6 0 10
3 9 8 -2 13 14 42 21 37 4 -2 8 2 9 10 1 8 3 22 4 30 1 8 7 15 15 15 7 0 13 9
13 19 0 10 7 22 16 25 8 3 13 10 9 15 -3 5 0 13 6 17 8 4 7 9 -2 15 -11 7 -10
9 5 9 12 0 16 5 12 16 -3 8 -2 12 3 9 5 -3 12 4 16 15 4 12 11 18 18 14 9 -5
9 -4 0 6 -9 10 -6 17 13 34 14 11 27 28 29 36 8 39 18 60 27 60 6 0 8 7 4 15
-3 10 1 15 12 16 10 0 12 3 4 6 -8 3 -5 11 10 25 13 11 18 17 11 14 -13 -7
-12 39 2 52 4 4 5 1 0 -7 -6 -10 -4 -12 4 -7 9 6 9 11 0 22 -9 11 -8 14 7 14
17 0 17 1 -2 16 -10 8 -14 13 -8 10 7 -3 15 1 18 10 5 12 2 15 -10 10 -14 -5
-15 -4 -4 9 7 8 9 15 4 15 -4 0 -3 5 4 12 7 7 12 17 12 23 0 5 -5 3 -10 -5 -8
-12 -10 -10 -10 10 0 15 -6 32 -12 39 -11 11 -10 13 2 7 12 -6 12 -5 -1 6 -9
7 -14 19 -11 27 3 8 0 11 -7 7 -7 -5 -11 1 -11 13 0 12 -6 21 -14 21 -8 0 -17
7 -20 16 -4 9 -13 14 -21 10 -9 -3 -18 1 -22 10 -3 8 -12 13 -19 10 -8 -3 -14
-1 -14 5 0 6 -7 6 -19 -1 -14 -7 -22 -7 -27 1 -4 8 -9 7 -15 -2 -6 -10 -9 -11
-9 -1 0 6 -5 12 -11 12 -5 0 -7 -4 -4 -10 3 -6 -1 -7 -10 -4 -12 5 -13 10 -4
20 6 8 15 11 20 8 5 -3 9 -1 9 5 0 5 6 11 13 14 6 2 1 3 -13 1 -14 -2 -19 -1
-12 2 6 3 9 11 6 16 -5 7 -2 8 6 3 10 -6 12 -3 7 11 -7 18 -6 18 7 1 9 -12 16
-14 21 -7 3 5 10 8 15 5 5 -3 12 -1 15 5 4 6 1 9 -6 8 -6 -2 -14 3 -16 10 -3
6 3 12 12 12 11 0 15 5 11 15 -3 8 0 18 7 22 7 5 19 17 27 27 14 18 13 19 -4
12 -19 -7 -19 -6 -1 14 22 24 26 25 19 5 -5 -11 -2 -13 9 -9 9 3 14 11 11 19
-7 17 27 29 40 14 8 -9 7 -10 -6 -6 -19 7 -34 -8 -18 -18 5 -3 10 -13 10 -22
0 -13 -3 -13 -15 -3 -12 10 -19 10 -27 2 -9 -9 -7 -12 11 -12 12 0 20 -4 16
-9 -3 -5 -1 -13 5 -16 6 -4 9 -3 8 2 -1 4 3 18 10 31 10 18 10 22 0 22 -8 0
-6 5 5 11 9 6 15 14 12 19 -3 4 2 11 11 14 8 3 12 10 9 16 -3 5 -1 10 6 10 8
0 8 4 1 13 -8 10 -10 165 -2 175 8 8 3 49 -7 60 -7 8 -10 18 -7 24 5 7 12 5
20 -7 12 -16 13 -16 11 3 0 11 -6 20 -11 19 -6 -1 -11 8 -12 19 0 12 -4 28 -8
35 -4 8 -1 5 8 -5 8 -10 13 -23 9 -29 -3 -6 -1 -7 5 -3 9 5 9 13 2 27 -6 11
-8 24 -5 29 3 6 1 10 -6 10 -7 0 -4 7 7 15 16 13 16 14 2 9 -22 -8 -24 12 -2
20 9 3 14 13 11 20 -3 8 -3 17 1 19 4 2 1 2 -5 1 -19 -5 -16 13 5 26 14 10 14
11 0 6 -11 -3 -15 1 -13 12 1 9 -2 23 -8 30 -6 8 -6 12 2 12 6 0 11 5 11 11 0
5 -6 7 -12 3 -10 -6 -10 -4 0 7 15 16 16 33 0 23 -7 -4 -8 -3 -4 4 4 7 15 12
24 13 14 0 13 2 -3 9 -11 5 -14 9 -6 9 7 1 11 7 8 15 -3 7 0 20 6 27 10 11 9
11 -5 0 -10 -7 -15 -18 -11 -24 3 -6 1 -7 -5 -3 -8 4 -5 17 8 39 11 18 18 43
16 54 -3 12 2 27 10 33 18 15 9 31 -13 23 -11 -4 -14 -3 -9 5 4 7 15 12 24 13
11 0 13 2 4 6 -10 4 -10 8 -1 19 6 8 9 25 7 39 -3 13 -2 23 1 20 4 -2 11 16
17 40 5 24 7 42 4 40 -4 -2 -7 2 -7 10 0 8 4 12 9 9 7 -5 9 1 8 21 -1 3 6 13
15 21 11 11 12 20 5 34 -13 23 -13 33 -1 25 5 -3 12 -1 16 5 3 5 -1 10 -10 10
-9 0 -13 5 -10 10 4 6 12 8 18 4 7 -3 5 0 -4 8 -14 12 -14 15 4 33 20 20 20
20 9 -1 -8 -16 -8 -21 2 -21 8 0 12 11 10 30 -2 16 1 38 7 49 7 12 7 18 1 14
-6 -3 -9 8 -8 30 2 20 9 39 16 44 7 4 9 13 5 19 -4 7 -2 18 5 26 8 9 8 15 0
20 -6 3 -7 11 -4 17 4 6 -1 17 -11 24 -16 12 -16 13 3 11 11 0 18 -5 16 -9 -3
-4 -1 -8 4 -8 6 0 13 7 16 16 3 8 2 13 -2 10 -4 -2 -14 -1 -22 5 -12 7 -9 9
10 9 18 0 21 3 11 9 -8 5 -9 11 -3 15 5 3 8 19 7 36 -1 17 1 33 6 36 5 3 9 9
9 14 0 6 -9 2 -19 -7 -11 -9 -17 -21 -14 -26 3 -6 1 -7 -5 -3 -9 5 -7 14 4 32
9 13 13 24 8 24 -4 0 1 7 12 15 13 11 14 14 4 13 -10 -2 -14 4 -13 17 6 60 1
165 -12 230 -2 11 -7 41 -10 67 -5 31 -11 45 -19 41 -6 -4 -5 1 3 10 10 13 10
17 1 17 -7 0 -10 6 -7 13 7 19 -14 127 -25 127 -5 0 -6 5 -3 10 3 6 0 10 -7
10 -9 0 -9 3 2 10 12 7 12 10 1 10 -7 0 -11 6 -8 15 4 8 2 17 -4 20 -5 4 -6
11 -3 17 4 6 2 8 -3 5 -6 -4 -13 0 -17 8 -3 8 -1 15 4 15 6 0 10 4 10 10 0 5
-8 7 -17 3 -15 -5 -16 -3 -5 8 20 22 15 42 -10 36 -22 -6 -22 -5 -5 8 19 14
16 54 -4 56 -5 1 -13 2 -19 3 -5 0 -10 4 -10 9 0 4 0 12 0 19 0 6 7 3 15 -8 8
-10 15 -17 15 -14 0 12 -37 107 -55 140 -11 19 -18 38 -17 43 1 4 -2 7 -8 7
-8 0 -63 72 -71 95 -2 6 -8 8 -14 7 -5 -2 -7 0 -3 4 4 4 0 13 -10 20 -10 8
-12 13 -4 14 6 0 12 4 12 9 0 5 -8 8 -17 7 -10 0 -18 6 -18 14 -1 8 -7 14 -14
12 -7 -1 -10 2 -5 9 5 9 2 10 -11 5 -18 -7 -18 -6 0 14 21 23 26 25 19 7 -3
-8 2 -20 10 -27 9 -7 13 -17 9 -22 -3 -6 0 -8 8 -6 8 3 13 10 12 16 -2 7 4 9
14 5 11 -4 14 -3 9 5 -4 7 -14 12 -22 12 -8 0 -14 5 -14 11 0 5 6 7 13 4 6 -4
2 2 -10 13 -25 22 -31 38 -10 26 8 -5 8 -2 -2 9 -15 19 -26 23 -15 5 4 -7 3
-8 -4 -4 -6 4 -9 12 -6 19 2 7 -4 24 -15 36 -12 13 -18 28 -14 34 4 6 1 7 -7
2 -10 -6 -12 -3 -8 12 4 16 2 19 -13 16 -11 -3 -19 0 -19 6 0 7 4 10 9 6 5 -3
12 -1 16 5 3 5 2 10 -3 10 -5 0 -15 11 -22 24 -7 14 -19 27 -27 30 -9 4 -11 2
-7 -7 6 -8 3 -8 -9 1 -9 8 -22 10 -28 6 -7 -4 -9 -3 -5 4 3 6 2 13 -4 17 -5 3
-10 13 -10 22 0 11 5 9 20 -8 11 -14 19 -18 20 -11 0 8 5 10 13 6 6 -4 5 1 -4
10 -21 23 -106 26 -120 5 -5 -7 -9 -9 -9 -3 0 16 25 35 35 26 5 -4 5 -1 1 6
-4 7 -11 10 -16 7 -4 -3 -10 -1 -12 5 -1 5 -15 11 -31 12 -17 1 -26 7 -23 14
3 7 -1 15 -9 18 -9 3 -12 0 -8 -10 3 -7 0 -14 -6 -14 -6 0 -10 3 -10 8 3 20
-2 33 -11 27 -6 -4 -9 -1 -8 7 2 7 -2 12 -8 11 -6 -1 -10 15 -11 35 0 45 -5
64 -18 75 -6 6 -4 7 5 4 12 -3 15 4 13 35 -1 33 2 38 15 34 15 -5 15 -4 0 7
-10 8 -15 17 -11 20 3 4 1 7 -6 7 -7 0 -10 -10 -7 -25 3 -14 1 -23 -5 -20 -5
4 -9 22 -9 41 0 21 -6 37 -15 40 -8 4 -12 11 -8 17 3 6 1 7 -5 3 -7 -4 -12 -1
-12 8 0 9 -4 16 -8 16 -5 0 -14 10 -20 23 -9 18 -11 19 -11 4 -1 -10 -6 -15
-11 -12 -6 4 -8 10 -5 14 2 5 -4 19 -15 32 -73 88 -93 108 -101 103 -5 -3 -8
-1 -7 4 3 12 -97 112 -112 112 -5 0 -10 4 -10 9 0 8 -70 72 -185 169 -16 14
-40 34 -53 46 -20 18 -25 18 -33 6 -9 -13 -10 -12 -5 2 3 12 -10 28 -47 55
-29 21 -53 41 -55 45 -2 5 -10 8 -19 8 -8 0 -21 7 -30 15 -8 8 -19 13 -24 9
-5 -3 -8 -2 -7 3 2 4 -1 9 -5 10 -5 1 -14 9 -21 19 -8 11 -18 14 -27 9 -8 -5
-11 -5 -7 0 15 16 -112 102 -132 90 -6 -4 -9 -1 -8 5 4 14 -76 60 -105 60 -18
0 -19 2 -7 11 12 9 11 10 -8 6 -13 -3 -20 -1 -16 5 4 6 0 14 -7 19 -20 12 -29
11 -25 -3 1 -7 1 -10 -1 -5 -3 4 -14 7 -26 7 -16 0 -18 3 -9 9 11 6 9 9 -6 13
-11 3 -26 1 -33 -6 -7 -7 -10 -7 -6 0 7 12 -87 39 -103 29 -5 -3 -10 -2 -10 2
0 5 -15 10 -33 11 -18 1 -43 5 -55 7 -12 3 -32 7 -44 10 -31 7 -335 23 -341
19z m-427 -79 c11 -13 10 -14 -4 -9 -9 3 -16 10 -16 15 0 13 6 11 20 -6z m-15
-24 c-9 -8 -36 -10 -30 -2 2 4 11 8 20 8 8 0 13 -3 10 -6z m-140 -30 c3 -7 3
-16 0 -19 -3 -3 -5 0 -5 6 0 7 -7 12 -16 12 -8 0 -12 -4 -9 -10 3 -5 2 -10 -4
-10 -5 0 -9 9 -8 19 1 23 34 24 42 2z m-75 -11 c0 -6 -8 -14 -17 -17 -10 -4
-24 -14 -31 -22 -11 -14 -11 -13 -2 7 6 12 17 22 25 22 8 0 15 5 15 10 0 6 2
10 5 10 3 0 5 -5 5 -10z m1550 -88 c19 -5 40 -22 40 -33 0 -5 -9 0 -20 11 -12
12 -25 18 -30 15 -5 -3 -14 5 -20 17 -9 19 -9 21 2 8 7 -8 20 -16 28 -18z
m-1892 -87 c-3 -3 -9 2 -12 12 -6 14 -5 15 5 6 7 -7 10 -15 7 -18z m-183 -45
c3 -6 -1 -7 -9 -4 -18 7 -21 14 -7 14 6 0 13 -4 16 -10z m40 0 c3 -6 -1 -7 -9
-4 -18 7 -21 14 -7 14 6 0 13 -4 16 -10z m-195 -81 c0 -6 -4 -7 -10 -4 -5 3
-10 0 -10 -7 0 -10 -3 -9 -10 2 -6 9 -5 17 3 22 13 8 27 1 27 -13z m-36 -93
c-3 -8 -13 -17 -22 -21 -13 -5 -13 -2 3 15 21 24 26 25 19 6z m-114 -6 c0 -5
-4 -10 -10 -10 -5 0 -10 5 -10 10 0 6 5 10 10 10 6 0 10 -4 10 -10z m-117 -27
c-4 -11 -3 -14 6 -9 7 5 10 2 9 -6 -2 -8 5 -12 17 -11 11 1 14 0 7 -3 -6 -3
-9 -11 -5 -17 9 -15 -28 13 -44 33 -11 13 -12 13 -13 -2 0 -18 -20 -36 -20
-19 0 11 35 51 45 51 2 0 1 -7 -2 -17z m90 -8 c-3 -8 -9 -15 -15 -15 -5 0 -6
-6 -2 -12 5 -10 3 -9 -7 0 -12 11 -11 15 4 23 9 6 14 15 11 21 -4 7 -2 8 4 4
6 -4 9 -13 5 -21z m97 19 c0 -8 -19 -13 -24 -6 -3 5 1 9 9 9 8 0 15 -2 15 -3z
m-36 -26 c-3 -5 -10 -5 -16 -2 -6 4 -17 -1 -25 -11 -7 -11 -13 -14 -13 -9 0
16 21 33 41 31 10 -1 15 -5 13 -9z m-214 -72 c0 -2 -7 -7 -16 -10 -8 -3 -12
-2 -9 4 6 10 25 14 25 6z m-160 -60 c0 -3 -4 -8 -10 -11 -5 -3 -10 -1 -10 4 0
6 5 11 10 11 6 0 10 -2 10 -4z m-275 -206 c3 -6 -1 -7 -9 -4 -18 7 -21 14 -7
14 6 0 13 -4 16 -10z m-93 -72 c-7 -7 -12 -8 -12 -2 0 14 12 26 19 19 2 -3 -1
-11 -7 -17z m3998 -23 c0 -1 -6 -7 -13 -13 -10 -8 -13 -6 -13 7 0 11 6 17 13
14 7 -3 13 -6 13 -8z m11 -62 c13 -16 12 -17 -3 -4 -10 7 -18 15 -18 17 0 8 8
3 21 -13z m-4119 -65 c-7 -7 -12 -19 -12 -27 0 -14 2 -14 11 -1 7 10 9 11 7 2
-2 -8 -6 -12 -10 -10 -3 2 -17 -9 -31 -24 -14 -15 -29 -24 -33 -20 -5 4 -2 -1
5 -10 10 -13 10 -18 1 -18 -6 0 -10 -6 -7 -12 2 -7 10 -12 16 -10 7 1 10 -2 6
-8 -9 -14 -37 8 -32 24 3 6 0 19 -5 29 -6 12 -5 17 6 17 7 0 17 7 20 16 4 9 9
14 13 10 3 -3 14 8 24 24 11 17 22 30 26 30 4 0 2 -5 -5 -12z m-9 -73 c-3 -9
-8 -14 -10 -11 -3 3 -2 9 2 15 9 16 15 13 8 -4z m4147 -25 c0 -5 -2 -10 -4
-10 -3 0 -8 5 -11 10 -3 6 -1 10 4 10 6 0 11 -4 11 -10z m-4218 -74 c7 4 8 2
4 -4 -5 -9 -12 -9 -26 0 -10 7 -16 16 -13 21 3 5 10 2 15 -7 5 -9 14 -13 20
-10z m4331 -53 c-5 -12 -3 -14 7 -8 9 5 11 4 6 -4 -10 -16 -25 -4 -23 19 1 10
5 17 9 14 4 -3 4 -12 1 -21z m89 -35 c-3 -14 -2 -19 6 -14 7 4 12 3 12 -3 0
-5 -8 -9 -18 -8 -26 2 -21 44 5 47 0 0 -1 -10 -5 -22z m133 -150 l20 -23 -21
18 c-11 9 -24 15 -27 12 -4 -3 -5 -2 -2 2 3 3 -3 12 -13 20 -16 13 -15 13 3 4
11 -5 29 -20 40 -33z m45 -88 c0 -5 -2 -10 -4 -10 -3 0 -8 5 -11 10 -3 6 -1
10 4 10 6 0 11 -4 11 -10z m153 -335 c-7 -21 -12 -19 -10 4 0 11 5 18 9 15 4
-3 5 -11 1 -19z m42 -54 c3 -5 2 -12 -3 -15 -5 -3 -9 1 -9 9 0 17 3 19 12 6z
m40 -80 c3 -5 2 -12 -3 -15 -5 -3 -9 1 -9 9 0 17 3 19 12 6z m42 -236 c0 -8
-4 -12 -9 -9 -5 3 -6 10 -3 15 9 13 12 11 12 -6z m88 -633 c-3 -3 -11 0 -18 7
-9 10 -8 11 6 5 10 -3 15 -9 12 -12z m-5605 -206 c0 -2 -8 -10 -17 -17 -16
-13 -17 -12 -4 4 13 16 21 21 21 13z m5555 -56 c3 -6 -1 -7 -9 -4 -18 7 -21
14 -7 14 6 0 13 -4 16 -10z m-18 -32 c-3 -8 -6 -5 -6 6 -1 11 2 17 5 13 3 -3
4 -12 1 -19z m-12 -139 c-4 -5 -12 -9 -18 -8 -9 0 -8 2 1 6 6 2 9 10 6 15 -4
7 -2 8 5 4 6 -4 9 -12 6 -17z m-5565 -89 c0 -5 -5 -10 -11 -10 -5 0 -7 5 -4
10 3 6 8 10 11 10 2 0 4 -4 4 -10z m13 -73 c3 -8 -1 -14 -8 -14 -7 0 -11 6 -8
14 3 7 6 13 8 13 2 0 5 -6 8 -13z m-3 -61 c0 -2 -8 -10 -17 -17 -16 -13 -17
-12 -4 4 13 16 21 21 21 13z m24 -24 c3 -5 -1 -9 -9 -9 -8 0 -12 4 -9 9 3 4 7
8 9 8 2 0 6 -4 9 -8z m5447 -95 c-10 -9 -11 -8 -5 6 3 10 9 15 12 12 3 -3 0
-11 -7 -18z m-5402 -60 c-2 -1 -13 -9 -24 -17 -19 -14 -19 -14 -6 3 7 9 18 17
24 17 6 0 8 -1 6 -3z m0 -83 c3 -16 1 -17 -13 -5 -19 16 -21 34 -3 29 6 -3 14
-13 16 -24z m5401 -125 c0 -14 -17 -10 -23 5 -4 10 -1 13 9 9 7 -3 14 -9 14
-14z m-65 -299 c3 -6 -1 -7 -9 -4 -18 7 -21 14 -7 14 6 0 13 -4 16 -10z m38 2
c-7 -4 -9 -13 -4 -21 11 -18 2 -51 -15 -51 -12 0 -10 27 5 78 1 1 7 2 14 2 9
0 9 -2 0 -8z m-47 -44 c3 -4 -1 -5 -10 -4 -8 1 -18 5 -22 8 -3 4 1 5 10 4 8
-1 18 -5 22 -8z m40 -50 c10 -15 14 -58 6 -59 -41 -5 -54 -4 -74 8 -22 13 -22
13 -1 8 24 -7 37 7 42 45 1 14 18 13 27 -2z m-51 -7 c3 -5 2 -12 -3 -15 -5 -3
-9 1 -9 9 0 17 3 19 12 6z m-20 -61 c3 -5 1 -10 -4 -10 -6 0 -11 5 -11 10 0 6
2 10 4 10 3 0 8 -4 11 -10z m-25 -20 c0 -5 -2 -10 -4 -10 -3 0 -8 5 -11 10 -3
6 -1 10 4 10 6 0 11 -4 11 -10z m-33 -45 c0 -8 -4 -12 -9 -9 -5 3 -6 10 -3 15
9 13 12 11 12 -6z m-28 -79 c-3 -3 -11 5 -18 17 -13 21 -12 21 5 5 10 -10 16
-20 13 -22z m-485 -1724 c3 -5 -1 -9 -9 -9 -8 0 -12 4 -9 9 3 4 7 8 9 8 2 0 6
-4 9 -8z m2257 -2649 c13 -16 12 -17 -3 -4 -10 7 -18 15 -18 17 0 8 8 3 21
-13z"/>
<path d="M7955 6400 c-3 -5 -1 -10 4 -10 6 0 11 5 11 10 0 6 -2 10 -4 10 -3 0
-8 -4 -11 -10z"/>
<path d="M7939 6363 c-12 -16 -12 -17 1 -7 8 6 22 14 30 17 13 5 12 6 -1 6 -9
1 -23 -7 -30 -16z"/>
<path d="M4022 10300 c-4 -3 -8 -11 -10 -18 -2 -10 2 -10 20 0 13 7 26 11 31
10 4 -1 7 2 7 7 0 10 -35 11 -48 1z"/>
<path d="M3316 9771 c-3 -5 1 -11 9 -14 9 -4 12 -1 8 9 -6 16 -10 17 -17 5z"/>
<path d="M7473 9695 c0 -14 3 -27 7 -30 4 -3 8 7 8 20 0 14 -4 27 -8 30 -4 3
-7 -7 -7 -20z"/>
<path d="M7509 9684 c6 -12 7 -24 4 -28 -3 -3 -1 -6 5 -6 16 0 15 12 -4 36
-15 18 -15 18 -5 -2z"/>
<path d="M7456 9635 c4 -8 8 -15 10 -15 2 0 4 7 4 15 0 8 -4 15 -10 15 -5 0
-7 -7 -4 -15z"/>
<path d="M7489 9638 c-1 -7 -1 -22 0 -33 1 -15 0 -17 -7 -7 -7 11 -10 9 -15
-7 -3 -15 3 -27 20 -41 14 -11 29 -20 34 -20 15 0 5 40 -11 45 -12 4 -16 15
-14 40 2 19 1 35 -1 35 -3 0 -6 -6 -6 -12z m15 -74 c30 -29 19 -33 -14 -4 -13
11 -18 20 -12 20 6 0 18 -7 26 -16z"/>
<path d="M7540 9622 c0 -6 -6 -10 -12 -8 -7 1 -10 1 -6 -1 4 -2 4 -12 1 -21
-3 -10 2 -7 12 6 9 13 14 26 11 29 -3 4 -6 1 -6 -5z"/>
<path d="M7547 9519 c4 -13 8 -18 11 -10 2 7 -1 18 -6 23 -8 8 -9 4 -5 -13z"/>
<path d="M3144 9503 c4 -8 2 -13 -5 -13 -7 0 -10 -3 -6 -6 3 -3 -14 -23 -38
-44 -24 -21 -41 -41 -38 -44 4 -3 -2 -6 -13 -6 -14 0 -16 -2 -6 -9 11 -7 10
-9 -3 -15 -9 -3 -14 -9 -12 -13 7 -11 -19 -33 -29 -25 -4 4 -4 1 0 -6 5 -7 2
-21 -6 -31 -7 -9 -3 -7 8 5 12 13 25 20 30 16 4 -4 4 -2 0 5 -3 6 -2 14 4 18
6 4 7 11 4 17 -5 8 -1 9 10 5 10 -4 15 -3 11 3 -3 6 -1 10 5 10 6 0 8 5 5 10
-3 6 -1 10 5 10 6 0 9 4 6 9 -3 5 4 11 15 14 13 4 19 10 14 19 -3 7 2 3 13
-10 l20 -22 21 29 c13 18 17 32 11 36 -5 3 -10 2 -10 -2 0 -5 -6 -17 -13 -27
-13 -17 -14 -18 -20 -2 -4 10 -3 15 3 11 5 -3 15 5 22 20 9 20 9 28 -2 38 -10
9 -11 9 -6 0z"/>
<path d="M3010 9209 c-7 -11 -10 -23 -7 -25 2 -2 9 7 15 21 14 30 7 33 -8 4z"/>
<path d="M7875 9078 c1 -10 11 -25 23 -34 12 -8 19 -21 16 -29 -4 -8 -1 -15 6
-15 6 0 9 -4 6 -8 -2 -4 5 -19 15 -32 19 -23 19 -23 9 -2 -6 12 -8 22 -4 22 4
0 -1 9 -11 20 -10 11 -14 20 -10 20 4 0 1 8 -8 18 -10 10 -14 22 -10 25 3 4 1
7 -5 7 -6 0 -9 6 -6 13 3 8 -1 14 -9 14 -7 0 -13 -9 -12 -19z"/>
<path d="M2715 8540 c-3 -5 -1 -10 4 -10 6 0 11 5 11 10 0 6 -2 10 -4 10 -3 0
-8 -4 -11 -10z"/>
<path d="M2540 7780 c0 -5 7 -7 15 -4 8 4 15 8 15 10 0 2 -7 4 -15 4 -8 0 -15
-4 -15 -10z"/>
<path d="M2513 7548 c0 -13 -2 -29 -4 -37 -2 -7 3 -16 11 -18 13 -4 13 -3 0 6
-11 8 -12 11 -2 11 7 0 11 4 7 9 -3 5 -1 12 4 16 11 6 4 35 -8 35 -4 0 -7 -10
-8 -22z"/>
<path d="M8013 6485 c0 -8 4 -12 9 -9 5 3 6 10 3 15 -9 13 -12 11 -12 -6z"/>
<path d="M8012 6440 c0 -14 2 -19 5 -12 2 6 2 18 0 25 -3 6 -5 1 -5 -13z"/>
<path d="M7890 6255 c-1 -11 -2 -26 -1 -34 2 -8 -2 -10 -11 -5 -7 4 -5 -2 5
-13 9 -11 14 -23 10 -28 -5 -4 -2 -5 5 -1 7 5 11 10 8 13 -9 9 14 44 25 37 6
-3 5 3 -2 14 -7 12 -16 19 -20 16 -4 -2 -10 2 -12 8 -3 8 -6 4 -7 -7z m30 -21
c0 -8 -19 -13 -24 -6 -3 5 1 9 9 9 8 0 15 -2 15 -3z"/>
</g>
</svg>
